<?xml version="1.0" standalone="no"?>
<!DOCTYPE svg PUBLIC "-//W3C//DTD SVG 1.1//EN" "http://www.w3.org/Graphics/SVG/1.1/DTD/svg11.dtd" >
<svg xmlns="http://www.w3.org/2000/svg" xmlns:xlink="http://www.w3.org/1999/xlink" version="1.1">
<metadata>
Created by FontForge 20190801 at Tue May 21 01:32:55 2019
 By Unknown
Copyright (c) 2017 by Art. Lebedev Studio. All rights reserved.
</metadata>
<defs>
<font id="ALSSectorRegular-Regular" horiz-adv-x="580" >
  <font-face 
    font-family="ALS Sector Regular"
    font-weight="400"
    font-stretch="normal"
    units-per-em="1000"
    panose-1="2 0 0 0 0 0 0 0 0 0"
    ascent="800"
    descent="-200"
    x-height="498"
    cap-height="632"
    bbox="-72 -194 1072 836"
    underline-thickness="50"
    underline-position="-100"
    unicode-range="U+000D-2248"
  />
<missing-glyph horiz-adv-x="304" 
 />
    <glyph glyph-name=".notdef" horiz-adv-x="304" 
 />
    <glyph glyph-name=".null" horiz-adv-x="0" 
 />
    <glyph glyph-name="nonmarkingreturn" unicode="&#xd;" horiz-adv-x="304" 
 />
    <glyph glyph-name="NULL" horiz-adv-x="0" 
 />
    <glyph glyph-name="NULL" horiz-adv-x="0" 
 />
    <glyph glyph-name="space" unicode=" " horiz-adv-x="290" 
 />
    <glyph glyph-name="exclam" unicode="!" horiz-adv-x="213" 
d="M72 235l-33 397h136l-35 -397h-68zM178 56q0 -38 -21 -56t-49 -18q-29 0 -50.5 18t-21.5 56q0 39 21.5 57.5t50.5 18.5q28 0 49 -18.5t21 -57.5z" />
    <glyph glyph-name="quotedbl" unicode="&#x22;" horiz-adv-x="360" 
d="M44 380v297h88v-297h-88zM217 380v297h88v-297h-88z" />
    <glyph glyph-name="numbersign" unicode="#" horiz-adv-x="688" 
d="M372 167h-160l-34 -167h-80l34 167h-105v70h120l36 178h-107v70h122l30 147h80l-30 -147h160l30 147h80l-30 -147h109v-70h-124l-36 -178h111v-70h-126l-34 -167h-80zM227 237h160l36 178h-160z" />
    <glyph glyph-name="dollar" unicode="$" horiz-adv-x="493" 
d="M213 -4q-65 3 -105.5 15t-67.5 23v91q41 -17 90.5 -30.5t98.5 -13.5q66 0 100.5 23t34.5 72q0 34 -25 51t-63 26.5t-81.5 18.5t-81.5 27t-63 51.5t-25 92.5q0 44 15 75.5t40.5 52t60 31.5t72.5 15v78h74v-77q38 -2 74 -9t67 -17v-89q-17 6 -38.5 11.5t-45 10t-47.5 7.5
t-46 3q-24 0 -47 -3t-40.5 -12t-28 -25.5t-10.5 -43.5q0 -38 25 -57t63 -30t81.5 -19.5t81.5 -26t63 -50t25 -90.5q0 -81 -48.5 -126.5t-128.5 -54.5v-78h-74v77z" />
    <glyph glyph-name="percent" unicode="%" horiz-adv-x="924" 
d="M25 461q0 39 14.5 72.5t39.5 58t58 38t71 13.5q37 0 70.5 -13.5t59 -38t40 -58t14.5 -72.5t-14.5 -72.5t-40 -57.5t-59 -37.5t-70.5 -13.5q-38 0 -71 13.5t-58 37.5t-39.5 57.5t-14.5 72.5zM103 461q0 -23 8.5 -42.5t22.5 -34t33.5 -23t40.5 -8.5q22 0 41 8.5t33.5 23
t23 34t8.5 42.5q0 48 -31 79t-75 31q-21 0 -40.5 -8.5t-33.5 -23t-22.5 -34.5t-8.5 -44zM528 163q0 39 14.5 72.5t39.5 58t58 38t71 13.5q37 0 70.5 -13.5t59 -38t40 -58t14.5 -72.5t-14.5 -72.5t-40 -57.5t-59 -37.5t-70.5 -13.5q-38 0 -71 13.5t-58 37.5t-39.5 57.5
t-14.5 72.5zM606 163q0 -23 8.5 -42.5t22.5 -34t33.5 -23t40.5 -8.5q22 0 41 8.5t33.5 23t23 34t8.5 42.5q0 48 -31 79t-75 31q-21 0 -40.5 -8.5t-33.5 -23t-22.5 -34.5t-8.5 -44zM204 -17l454 695h82l-456 -695h-80z" />
    <glyph glyph-name="ampersand" unicode="&#x26;" horiz-adv-x="835" 
d="M354 643q32 0 67.5 -4.5t60.5 -12.5v-84q-17 8 -51 14.5t-68 6.5q-32 0 -55 -10t-23 -40q0 -15 10.5 -34t29.5 -36h279l-19 -70h-187l392 -373h-121l-94 91q-57 -57 -123.5 -83t-133.5 -26q-68 0 -118.5 19t-84 51.5t-50 75t-16.5 89.5q0 77 48 133t132 79q-20 26 -28 47
t-8 45q0 34 15 57t38 37.5t52 21t56 6.5zM154 221q0 -39 15 -67.5t40 -47t57.5 -27t66.5 -8.5q48 0 97.5 20.5t87.5 54.5l-225 217q-28 -6 -53 -16.5t-44 -27t-30.5 -41t-11.5 -57.5z" />
    <glyph glyph-name="quotesingle" unicode="'" horiz-adv-x="175" 
d="M44 380v297h88v-297h-88z" />
    <glyph glyph-name="parenleft" unicode="(" horiz-adv-x="341" 
d="M153 317q0 -144 40 -225.5t108 -97.5v-79q-119 21 -184.5 122t-66.5 280q0 180 65.5 281.5t185.5 122.5v-79q-68 -16 -108 -98t-40 -227z" />
    <glyph glyph-name="parenright" unicode=")" horiz-adv-x="342" 
d="M198 319q0 144 -40 225.5t-108 97.5v79q119 -21 184.5 -122t66.5 -280q0 -180 -65.5 -281.5t-185.5 -122.5v79q68 16 108 98t40 227z" />
    <glyph glyph-name="asterisk" unicode="*" horiz-adv-x="439" 
d="M241 461l-10 -4l24 -153h-72l24 153l-9 3l-91 -126l-51 51l125 93l-4 9l-153 -24v72l153 -24l4 9l-125 93l51 51l91 -126l9 3l-24 153h72l-24 -152l10 -3l91 125l51 -51l-126 -93l4 -9l153 24v-72l-153 24l-4 -9l126 -93l-51 -51z" />
    <glyph glyph-name="plus" unicode="+" horiz-adv-x="624" 
d="M356 386h198v-83h-198v-214h-89v214h-198v83h198v210h89v-210z" />
    <glyph glyph-name="comma" unicode="," horiz-adv-x="221" 
d="M21 -137l74 262h112l-116 -262h-70z" />
    <glyph glyph-name="hyphen" unicode="-" horiz-adv-x="387" 
d="M47 203v92h300v-92h-300z" />
    <glyph glyph-name="period" unicode="." horiz-adv-x="199" 
d="M174 56q0 -38 -21 -56t-49 -18q-29 0 -50.5 18t-21.5 56q0 39 21.5 57.5t50.5 18.5q28 0 49 -18.5t21 -57.5z" />
    <glyph glyph-name="slash" unicode="/" horiz-adv-x="533" 
d="M68 0l306 677h102l-307 -677h-101z" />
    <glyph glyph-name="zero" unicode="0" horiz-adv-x="648" 
d="M324 76q47 0 80.5 19t55 51t31.5 75t10 91t-10 91t-31.5 75.5t-55 51.5t-80.5 19t-80.5 -19t-55 -51t-31.5 -75t-10 -91t10 -91t31.5 -75.5t55 -51.5t80.5 -19zM324 -17q-68 0 -121 26t-89 71t-55 105t-19 128t19 128t55 105t89 71t121 26t121 -26t89 -71t55 -105.5
t19 -128.5t-19 -128t-55 -104.5t-89 -70.5t-121 -26z" />
    <glyph glyph-name="one" unicode="1" horiz-adv-x="379" 
d="M253 88h125v-88h-349v88h125v447h-133l23 97h209v-544z" />
    <glyph glyph-name="two" unicode="2" horiz-adv-x="482" 
d="M11 0v35l197 220q27 30 47 54t34 45.5t21 42t7 42.5q0 58 -32 84.5t-88 26.5q-37 0 -81 -13.5t-84 -37.5v95q45 27 90.5 38t91.5 11q40 0 77 -11.5t65 -35t45 -58.5t17 -82q0 -33 -7.5 -60t-23 -54t-40 -56.5t-57.5 -66.5l-111 -122h262v-97h-430z" />
    <glyph glyph-name="three" unicode="3" horiz-adv-x="496" 
d="M31 123q32 -17 75 -34t91 -17q34 0 61 10t46 27.5t28.5 41t9.5 49.5q0 33 -12 55t-32 35t-46 18.5t-53 5.5q-18 0 -36 -2t-34 -5l-12 37l181 194h-277l24 94h384v-67l-174 -181q49 -2 85.5 -19t60.5 -43.5t36 -59.5t12 -67q0 -49 -18 -88t-49.5 -66.5t-73.5 -42.5
t-90 -15q-45 0 -97 8t-90 34v98z" />
    <glyph glyph-name="four" unicode="4" horiz-adv-x="596" 
d="M383 242v259l-222 -259h222zM59 157l-22 64l354 411h90v-390h105l-31 -85h-74v-157h-98v157h-324z" />
    <glyph glyph-name="five" unicode="5" horiz-adv-x="522" 
d="M482 198q0 -50 -20 -89.5t-55 -67.5t-83 -43t-105 -15q-48 0 -92 8t-84 30v96q34 -16 76 -30.5t87 -14.5q37 0 68 8.5t53.5 25.5t35 42t12.5 59q0 52 -34 83.5t-103 31.5q-38 0 -77.5 -6t-73.5 -20l-21 22l35 314h352l-25 -94h-255l-16 -143q23 8 49 12t53 4q40 0 80 -11
t71.5 -36.5t51.5 -66t20 -99.5z" />
    <glyph glyph-name="six" unicode="6" horiz-adv-x="648" 
d="M338 -17q-125 0 -194.5 78t-69.5 220q0 76 20 142t59 115t95 77t128 28q83 0 150 -41v-94q-66 42 -139 42q-48 0 -84.5 -16.5t-62.5 -45t-40 -67t-17 -82.5q29 33 73.5 50t101.5 17q45 0 84.5 -14.5t69 -41.5t46 -64.5t16.5 -82.5q0 -49 -18 -89.5t-49.5 -69.5t-75 -45
t-93.5 -16zM330 72q30 0 55 9.5t43 27t28.5 41t10.5 51.5q0 27 -10.5 49.5t-29.5 38.5t-44 25t-53 9q-24 0 -48 -7.5t-44.5 -21t-36 -31.5t-22.5 -39q4 -33 16 -61t31.5 -48t45.5 -31.5t58 -11.5z" />
    <glyph glyph-name="seven" unicode="7" horiz-adv-x="418" 
d="M94 17l195 519h-301l23 96h423l-246 -652z" />
    <glyph glyph-name="eight" unicode="8" horiz-adv-x="571" 
d="M146 331q-32 23 -51.5 56t-19.5 83q0 39 15 71t43.5 54.5t69 35t91.5 12.5q43 0 79.5 -12.5t63.5 -35.5t42.5 -54t15.5 -67q0 -45 -22.5 -84.5t-65.5 -62.5q55 -24 90.5 -60.5t35.5 -101.5q0 -48 -21 -82t-55.5 -56.5t-79 -33t-91.5 -10.5q-57 0 -103 13.5t-78 37.5
t-49.5 57.5t-17.5 72.5q0 48 27 93.5t81 73.5zM138 177q0 -28 12 -48t33 -32.5t48.5 -18.5t59.5 -6q30 0 56 5.5t45 17t30 28.5t11 40q0 28 -19.5 46t-50 31.5t-68.5 25t-75 26.5q-43 -17 -62.5 -49t-19.5 -66zM397 465q0 44 -30.5 67.5t-82.5 23.5q-23 0 -43 -4t-35 -13.5
t-24 -26.5t-9 -42q0 -26 16 -44t39.5 -31.5t50 -22.5t47.5 -15q35 20 53 50t18 58z" />
    <glyph glyph-name="nine" unicode="9" horiz-adv-x="610" 
d="M317 553q-29 0 -53.5 -9.5t-42.5 -27t-28.5 -40.5t-10.5 -50q0 -57 37.5 -90.5t98.5 -33.5q25 0 49 8t45 21.5t36 32t22 38.5q-4 33 -16.5 60.5t-32 47.5t-46 31.5t-58.5 11.5zM311 643q62 0 111 -20.5t82.5 -59t51.5 -94t18 -125.5q0 -75 -20 -141t-58.5 -114.5t-95 -77
t-128.5 -28.5q-85 0 -149 40v94q64 -42 138 -42q48 0 85.5 17t63 45.5t40 67t17.5 81.5q-30 -30 -76.5 -48.5t-100.5 -18.5q-46 0 -85.5 14.5t-68 41t-45 64t-16.5 83.5q0 49 18 89.5t49.5 69.5t75 45.5t93.5 16.5z" />
    <glyph glyph-name="colon" unicode=":" horiz-adv-x="282" 
d="M212 56q0 -38 -21 -56t-49 -18q-29 0 -50.5 18t-21.5 56q0 39 21.5 57.5t50.5 18.5q28 0 49 -18.5t21 -57.5zM212 439q0 -38 -21 -56t-49 -18q-29 0 -50.5 18t-21.5 56q0 39 21.5 57.5t50.5 18.5q28 0 49 -18.5t21 -57.5z" />
    <glyph glyph-name="semicolon" unicode=";" horiz-adv-x="205" 
d="M180 439q0 -38 -21 -56t-49 -18q-29 0 -50.5 18t-21.5 56q0 39 21.5 57.5t50.5 18.5q28 0 49 -18.5t21 -57.5zM-18 -137l74 262h112l-116 -262h-70z" />
    <glyph glyph-name="less" unicode="&#x3c;" horiz-adv-x="535" 
d="M209 339l293 -174v-114l-423 271v34l423 270v-113z" />
    <glyph glyph-name="equal" unicode="=" horiz-adv-x="578" 
d="M50 415v82h476v-82h-476zM50 195v82h476v-82h-476z" />
    <glyph glyph-name="greater" unicode="&#x3e;" horiz-adv-x="536" 
d="M79 513v113l423 -270v-34l-423 -271v114l293 174z" />
    <glyph glyph-name="question" unicode="?" horiz-adv-x="387" 
d="M17 614q31 13 67.5 21t73.5 8q41 0 79.5 -10t68.5 -32.5t48 -57.5t18 -86q0 -72 -51 -124.5t-146 -66.5v-67h-86l-11 138q33 0 67.5 5.5t62.5 19.5t46 37t18 58q0 41 -29 68.5t-92 27.5q-35 0 -70 -9t-64 -20v90zM209 56q0 -38 -21 -56t-49 -18q-29 0 -50.5 18t-21.5 56
q0 39 21.5 57.5t50.5 18.5q28 0 49 -18.5t21 -57.5z" />
    <glyph glyph-name="at" unicode="@" horiz-adv-x="751" 
d="M642 155q2 14 3 28t1 28q0 55 -18 98.5t-51 74t-80 47t-105 16.5q-55 0 -103.5 -17t-85 -49.5t-57.5 -80t-21 -109.5t22 -109t59 -79t86 -48.5t102 -16.5q29 0 57 3t55 13v-68q-26 -8 -55.5 -12.5t-58.5 -4.5q-79 2 -142 28t-107.5 70.5t-68.5 103.5t-24 127
q0 72 27.5 131t74 101t108.5 64.5t132 22.5q79 0 139 -23.5t101 -64t62 -96t21 -119.5q0 -27 -4 -55t-12 -57l-367 -76q-59 30 -82.5 74t-23.5 91q0 30 11.5 58.5t33 50t53.5 34.5t73 13q16 0 40.5 -5t48 -19t40.5 -40t17 -69v-81zM466 215q0 19 -7.5 31t-18.5 18.5
t-22.5 8.5t-20.5 2q-48 0 -69 -25t-21 -59q0 -26 13 -53t38 -45l108 23v99z" />
    <glyph glyph-name="A" unicode="A" horiz-adv-x="622" 
d="M-10 0l302 632h30l310 -632h-113l-61 129h-298l-58 -129h-112zM307 454l-108 -239h219z" />
    <glyph glyph-name="B" unicode="B" horiz-adv-x="604" 
d="M284 553q-24 0 -54 -1.5t-53 -4.5v-183h114q62 0 100.5 23t38.5 74q0 47 -37 69.5t-109 22.5zM177 280v-195q24 -2 57 -2h55q84 0 126 24t42 79q0 51 -42 72.5t-119 21.5h-119zM76 632q56 2 107 3.5t110 1.5q128 0 187 -40t59 -109q0 -49 -23 -90.5t-85 -63.5
q72 -17 102.5 -56t30.5 -97q0 -46 -19 -80.5t-54.5 -57.5t-86 -34.5t-113.5 -11.5q-66 0 -121.5 1t-93.5 3v631z" />
    <glyph glyph-name="C" unicode="C" horiz-adv-x="597" 
d="M567 24q-47 -23 -96 -32.5t-101 -9.5q-72 0 -132 25t-103 69t-66.5 104t-23.5 131q0 75 24.5 136t69.5 104.5t108 67.5t140 24q45 0 87.5 -8t87.5 -27v-91q-41 17 -83 23.5t-85 6.5q-54 0 -98.5 -16t-76 -46t-48.5 -74t-17 -100q1 -57 20 -100.5t50 -73t72.5 -44.5
t88.5 -15q46 0 95 12t87 30v-96z" />
    <glyph glyph-name="D" unicode="D" horiz-adv-x="697" 
d="M76 0v632h239q75 0 138 -23.5t108 -65.5t70.5 -100t25.5 -127q0 -70 -25 -128t-70.5 -100t-108.5 -65t-138 -23h-239zM177 92h116q121 0 189 59t68 165t-68 164.5t-189 58.5h-116v-447z" />
    <glyph glyph-name="E" unicode="E" horiz-adv-x="547" 
d="M76 632h457v-91h-356v-173h314v-91h-314v-186h356v-91h-457v632z" />
    <glyph glyph-name="F" unicode="F" horiz-adv-x="541" 
d="M76 632h457v-91h-356v-195h279v-91h-279v-255h-101v632z" />
    <glyph glyph-name="G" unicode="G" horiz-adv-x="667" 
d="M149 311q1 -52 16.5 -95.5t44.5 -75t71 -49t97 -17.5q33 0 68 6t65 23v150h-151l20 86h217v-291q-25 -20 -55 -32.5t-61.5 -20t-62.5 -10.5t-57 -3q-72 0 -131 25t-101 69.5t-65.5 104.5t-23.5 130q0 75 24.5 136t69.5 104.5t108 67.5t140 24q45 0 87.5 -8t87.5 -27v-91
q-41 17 -83 23.5t-85 6.5q-55 0 -99 -15t-75.5 -44.5t-48.5 -73.5t-17 -103z" />
    <glyph glyph-name="H" unicode="H" horiz-adv-x="688" 
d="M511 632h101v-632h-101v269h-334v-269h-101v632h101v-267h334v267z" />
    <glyph glyph-name="I" unicode="I" horiz-adv-x="253" 
d="M76 632h101v-632h-101v632z" />
    <glyph glyph-name="J" unicode="J" horiz-adv-x="442" 
d="M154 -14q-47 0 -80 7.5t-59 24.5v93q25 -15 52.5 -24t57.5 -9q74 0 110 31.5t36 111.5v411h101v-417q0 -66 -18 -110t-48.5 -70.5t-70 -37.5t-81.5 -11z" />
    <glyph glyph-name="K" unicode="K" horiz-adv-x="595" 
d="M76 632h101v-273h61l232 273h119l-259 -303l291 -329h-137l-239 276h-68v-276h-101v632z" />
    <glyph glyph-name="L" unicode="L" horiz-adv-x="524" 
d="M76 632h101v-537h322v-95h-423v632z" />
    <glyph glyph-name="M" unicode="M" horiz-adv-x="883" 
d="M445 15l-228 386l-60 -401h-107l111 632h30l254 -440l252 440h30l116 -632h-107l-71 401z" />
    <glyph glyph-name="N" unicode="N" horiz-adv-x="708" 
d="M632 0h-42l-413 433v-433h-101v632h42l413 -433v433h101v-632z" />
    <glyph glyph-name="O" unicode="O" horiz-adv-x="742" 
d="M371 76q48 0 89 17t71 48t47 74.5t17 96.5t-17 97t-47 75t-71 48t-89 17t-89 -17t-71 -48t-47 -74.5t-17 -96.5t17 -97t47 -75t71 -48t89 -17zM371 -18q-74 0 -134.5 24t-104 67.5t-67.5 104.5t-25 135q1 74 25 134.5t67.5 104t104 67.5t134.5 24q73 0 134 -24
t104.5 -67.5t67.5 -104.5t25 -135q-1 -74 -25 -134.5t-67.5 -104t-104.5 -67.5t-134 -24z" />
    <glyph glyph-name="P" unicode="P" horiz-adv-x="593" 
d="M76 632h241q67 0 114 -17.5t76 -47.5t42.5 -70t13.5 -85q0 -61 -21 -103.5t-56 -69t-80 -38.5t-93 -12q-25 0 -61.5 3.5t-74.5 11.5v-204h-101v632zM177 289q29 -6 61.5 -8t52.5 -2q35 0 65.5 7.5t52.5 23.5t34.5 42t12.5 63q0 25 -6.5 47.5t-23.5 39.5t-46 26.5t-73 9.5
h-130v-249z" />
    <glyph glyph-name="Q" unicode="Q" horiz-adv-x="745" 
d="M579 -77q21 0 41 4t40 15v-88q-20 -9 -42.5 -13t-39.5 -4q-79 0 -144 41.5t-122 108.5q-60 10 -109 37.5t-84 69.5t-54 97.5t-20 121.5q1 74 25 134.5t67.5 104t104 67.5t134.5 24q73 0 134 -24t104.5 -67.5t67.5 -104.5t25 -135q-1 -67 -21 -123t-56 -98.5t-87 -69.5
t-113 -35q34 -39 75 -51t74 -12zM376 75q48 0 89 17t71 48t47 75t17 97t-17 97t-47 75t-71 48t-89 17t-89 -17t-71 -48t-47 -74.5t-17 -96.5t17 -97t47 -75.5t71 -48.5t89 -17z" />
    <glyph glyph-name="R" unicode="R" horiz-adv-x="602" 
d="M76 632h251q57 0 98.5 -13t69 -37.5t40.5 -59t13 -77.5q0 -53 -24 -101t-82 -80q35 -63 72 -131.5t72 -132.5h-110l-127 240q-12 -1 -23.5 -1.5t-23.5 -0.5q-31 0 -62 3t-63 8v-249h-101v632zM177 336q28 -5 59 -8t58 -3q29 0 56.5 5t48.5 17.5t34 34.5t13 56
q0 54 -37 78t-106 24h-126v-204z" />
    <glyph glyph-name="S" unicode="S" horiz-adv-x="524" 
d="M456 514q-16 7 -37.5 13.5t-46.5 11.5t-51.5 8t-51.5 3q-66 0 -100.5 -17.5t-34.5 -64.5q0 -31 15.5 -50t41 -31t57.5 -19.5t66 -15.5t66 -19t57.5 -30.5t41 -50t15.5 -76.5q0 -54 -18 -91t-49.5 -60t-74 -33t-91.5 -10q-55 0 -109 10.5t-103 30.5v104q42 -19 94.5 -35
t103.5 -16q71 0 107 23t36 75q0 37 -26.5 54.5t-66.5 28t-87 20t-87 29t-66.5 55.5t-26.5 100q0 92 65.5 137t176.5 45q44 0 94 -8.5t90 -22.5v-98z" />
    <glyph glyph-name="T" unicode="T" horiz-adv-x="511" 
d="M205 541h-205v91h511v-91h-205v-541h-101v541z" />
    <glyph glyph-name="U" unicode="U" horiz-adv-x="670" 
d="M335 -18q-60 0 -108.5 19t-83.5 54.5t-54 87.5t-19 118v371h101v-374q0 -89 44 -135t120 -46t120 46t44 135v374h101v-371q0 -66 -19 -118t-54 -87.5t-83.5 -54.5t-108.5 -19z" />
    <glyph glyph-name="V" unicode="V" horiz-adv-x="557" 
d="M452 632h115l-271 -632h-37l-269 632h116l177 -442z" />
    <glyph glyph-name="W" unicode="W" horiz-adv-x="830" 
d="M620 194l117 438h108l-188 -632h-37l-204 381l-206 -381h-37l-188 632h111l119 -438l202 367z" />
    <glyph glyph-name="X" unicode="X" horiz-adv-x="600" 
d="M149 632l148 -224l159 224h120l-216 -291l250 -341h-121l-192 270l-187 -270h-120l247 336l-209 296h121z" />
    <glyph glyph-name="Y" unicode="Y" horiz-adv-x="561" 
d="M230 228l-246 404h117l179 -315l180 315h117l-246 -404v-228h-101v228z" />
    <glyph glyph-name="Z" unicode="Z" horiz-adv-x="534" 
d="M20 0v31l337 510h-321v91h473v-31l-338 -510h353v-91h-504z" />
    <glyph glyph-name="bracketleft" unicode="[" horiz-adv-x="367" 
d="M44 -42v745h296v-85h-195v-575h195v-85h-296z" />
    <glyph glyph-name="backslash" unicode="\" horiz-adv-x="560" 
d="M375 0l-307 677h102l306 -677h-101z" />
    <glyph glyph-name="bracketright" unicode="]" horiz-adv-x="367" 
d="M44 -42v85h195v575h-195v85h296v-745h-296z" />
    <glyph glyph-name="asciicircum" unicode="^" horiz-adv-x="534" 
d="M284 677l214 -331h-112l-119 193l-119 -193h-112l214 331h34z" />
    <glyph glyph-name="underscore" unicode="_" horiz-adv-x="509" 
d="M0 -95v95h509v-95h-509z" />
    <glyph glyph-name="a" unicode="a" horiz-adv-x="561" 
d="M425 0l-12 78q-40 -51 -88.5 -70t-105.5 -19q-33 0 -65 10t-58 30t-42 50.5t-16 71.5q0 46 17 78.5t45.5 52t65.5 28.5t78 9q29 0 70 -8.5t78 -22.5v45q0 30 -13.5 48.5t-34.5 28.5t-46 13.5t-49 3.5q-42 0 -82 -7t-76 -25v90q39 14 83 22t86 8q46 0 88.5 -8t75 -30
t51.5 -61t19 -101v-315h-69zM392 203q-29 18 -64 28t-72 10q-50 0 -80.5 -17.5t-30.5 -61.5q0 -42 24 -67.5t81 -25.5q41 0 79.5 24.5t62.5 68.5v41z" />
    <glyph glyph-name="b" unicode="b" horiz-adv-x="623" 
d="M178 100q36 -14 63 -19t57 -5q36 0 69 10.5t57.5 32t39 55.5t14.5 82q0 45 -12.5 76.5t-32.5 52t-46.5 29.5t-53.5 9q-41 0 -81 -15t-74 -45v-263zM76 677h102v-225q39 35 83.5 49t95.5 14q49 0 91 -16t72.5 -48.5t47.5 -81t17 -112.5q0 -71 -23.5 -123t-63.5 -85.5
t-93 -49.5t-113 -16q-52 0 -108 15t-108 41v638z" />
    <glyph glyph-name="c" unicode="c" horiz-adv-x="480" 
d="M439 407q-25 8 -57 14t-63 6q-85 0 -129.5 -44.5t-44.5 -132.5t48 -133t123 -45q35 0 68.5 6.5t60.5 18.5v-87q-35 -15 -74 -21t-69 -6q-56 0 -104.5 18t-84 51.5t-55.5 82.5t-20 111q0 61 19 110.5t54 85t84.5 54.5t111.5 19q26 0 63.5 -5t68.5 -17v-86z" />
    <glyph glyph-name="d" unicode="d" horiz-adv-x="613" 
d="M451 677h102v-677h-73l-10 78q-26 -29 -50.5 -46t-49 -27t-50 -13t-53.5 -3q-55 0 -97.5 20.5t-72 56t-44.5 82.5t-15 101q0 61 17.5 110.5t49.5 84t77 53t99 18.5q37 0 81 -10.5t89 -47.5v220zM451 360q-34 36 -71.5 53t-75.5 17q-41 0 -71 -13.5t-49.5 -37t-29 -56
t-9.5 -70.5q0 -37 8 -69.5t26 -56.5t46 -38t68 -14q45 0 87 23t71 80v182z" />
    <glyph glyph-name="e" unicode="e" horiz-adv-x="581" 
d="M494 15q-17 -8 -38 -14t-44.5 -10t-47.5 -6t-46 -2q-73 0 -126 21t-87 57t-50.5 85t-16.5 105q0 63 21.5 112.5t57.5 83t82.5 51t96.5 17.5q64 0 109 -19t73.5 -52t42 -76.5t13.5 -92.5q0 -12 -1 -34.5t-3 -37.5h-384q6 -39 24.5 -64.5t44.5 -41t57.5 -22t63.5 -6.5
q35 0 77.5 7t80.5 24v-85zM432 282q0 72 -39 109.5t-97 37.5q-69 0 -108.5 -39t-43.5 -108h288z" />
    <glyph glyph-name="f" unicode="f" horiz-adv-x="359" 
d="M166 419v-419h-104v474q0 69 17.5 110.5t46 63.5t64.5 29t72 7q20 0 39.5 -2t42.5 -5v-82q-16 5 -34 7.5t-38 2.5q-19 0 -38 -3.5t-34 -15t-24.5 -32.5t-9.5 -56h152v-79h-152z" />
    <glyph glyph-name="g" unicode="g" horiz-adv-x="627" 
d="M291 429q-41 0 -69 -14t-45 -38t-24.5 -57.5t-7.5 -72.5q0 -34 8 -65t26 -55t46 -38t68 -14q44 0 87 27t73 86v171q-38 39 -81 54.5t-81 15.5zM472 498h83v-400q0 -83 -22.5 -139t-61 -90t-88.5 -48.5t-104 -14.5t-97.5 10t-78.5 28v87q38 -17 77 -26.5t84 -9.5
q22 0 54.5 4t62.5 20.5t51 51t21 94.5v16q-21 -29 -43 -47t-46 -28t-49.5 -13.5t-53.5 -3.5q-54 0 -95.5 20.5t-70 56t-43 83t-14.5 101.5q0 67 20.5 117t53.5 83t74.5 49t83.5 16q21 0 46 -3t50.5 -11t51 -22.5t47.5 -37.5z" />
    <glyph glyph-name="h" unicode="h" horiz-adv-x="593" 
d="M67 677h103v-253q31 49 76.5 70t94.5 21q37 0 71 -10.5t59 -32t40 -55.5t15 -81v-336h-104v308q0 33 -8.5 55.5t-23.5 37t-34.5 21t-41.5 6.5q-51 0 -86 -25t-58 -73v-330h-103v677z" />
    <glyph glyph-name="i" unicode="i" horiz-adv-x="251" 
d="M72 498h104v-498h-104v498zM62 633q0 29 18.5 49t44.5 20q27 0 45.5 -20t18.5 -49t-18.5 -49.5t-45.5 -20.5q-26 0 -44.5 20.5t-18.5 49.5z" />
    <glyph glyph-name="j" unicode="j" horiz-adv-x="268" 
d="M89 498h104v-423q0 -51 -6 -99.5t-25.5 -86t-55 -60.5t-93.5 -23q-48 0 -85 21v81q17 -10 34.5 -13.5t31.5 -3.5q19 0 36.5 5t30.5 18.5t20.5 35.5t7.5 57v491zM79 633q0 29 18.5 49t44.5 20q27 0 45.5 -20t18.5 -49t-18.5 -49.5t-45.5 -20.5q-26 0 -44.5 20.5
t-18.5 49.5z" />
    <glyph glyph-name="k" unicode="k" horiz-adv-x="515" 
d="M67 677h104v-383h74l158 204h124l-198 -239l205 -259h-129l-169 219h-65v-219h-104v677z" />
    <glyph glyph-name="l" unicode="l" horiz-adv-x="235" 
d="M67 677h104v-677h-104v677z" />
    <glyph glyph-name="m" unicode="m" horiz-adv-x="890" 
d="M826 0h-103v308q0 63 -23 91.5t-74 28.5q-45 -2 -75.5 -24t-52.5 -65v-339h-103v308q0 63 -23 91.5t-74 28.5q-45 -2 -75.5 -24t-52.5 -65v-339h-103v498h81v-88q31 54 76 79.5t98 25.5t94.5 -22.5t61.5 -82.5q32 56 77.5 80.5t99.5 24.5q28 0 58 -7t55 -28.5t41.5 -62.5
t16.5 -109v-308z" />
    <glyph glyph-name="n" unicode="n" horiz-adv-x="591" 
d="M67 498h81v-88q33 55 82 80t106 25q37 0 72 -10.5t61 -32t42 -55.5t16 -81v-336h-104v308q0 33 -8.5 55.5t-23.5 37t-34.5 21t-41.5 6.5q-51 0 -86 -25t-58 -73v-330h-104v498z" />
    <glyph glyph-name="o" unicode="o" horiz-adv-x="606" 
d="M303 -17q-67 1 -117 22.5t-83 57.5t-49 83.5t-16 99.5q0 57 18 106.5t52 85.5t83.5 56.5t111.5 20.5q67 -1 117 -22.5t83 -57.5t49 -83.5t16 -99.5q0 -57 -18 -106.5t-52 -85.5t-83.5 -56.5t-111.5 -20.5zM303 69q45 0 75.5 16t48.5 41t26 56.5t8 61.5q0 35 -9 68t-28 59
t-49 42t-72 16q-45 0 -75.5 -16t-48.5 -41t-26 -56.5t-8 -61.5q0 -35 9 -68t28 -59t49 -42t72 -16z" />
    <glyph glyph-name="p" unicode="p" horiz-adv-x="622" 
d="M170 -190h-103v688h81v-88q22 31 47.5 51t53 32t55.5 17t55 5q57 0 99.5 -20t70.5 -54.5t41.5 -81t13.5 -99.5q0 -56 -15.5 -106t-46 -88t-75.5 -60.5t-103 -22.5q-38 0 -83.5 11t-90.5 47v-231zM325 76q40 0 69 15t47.5 39.5t27 57t8.5 68.5q0 73 -36.5 119t-115.5 46
q-43 0 -86 -22t-70 -66v-203q36 -30 74 -42t82 -12z" />
    <glyph glyph-name="q" unicode="q" horiz-adv-x="622" 
d="M291 429q-41 0 -69 -14t-45 -38t-24.5 -57.5t-7.5 -72.5q0 -33 8 -64t26 -55t46 -38.5t68 -14.5q44 0 87.5 26t72.5 87v171q-38 39 -81 54.5t-81 15.5zM472 498h83v-688h-102v271q-20 -29 -42 -47t-46 -28t-50 -13.5t-54 -3.5q-54 0 -95.5 20.5t-70 56t-43 83
t-14.5 101.5q0 67 20.5 117t53.5 83t74.5 49t83.5 16q21 0 46 -3t50.5 -11t51 -22.5t47.5 -37.5z" />
    <glyph glyph-name="r" unicode="r" horiz-adv-x="366" 
d="M67 498h81v-101q38 66 88 90.5t110 24.5h15t15 -1v-106q-28 7 -56 7q-103 0 -149 -103v-309h-104v498z" />
    <glyph glyph-name="s" unicode="s" horiz-adv-x="486" 
d="M52 112q42 -22 94 -32.5t100 -10.5q21 0 40.5 3.5t34.5 12t23.5 21t8.5 30.5q0 26 -23 38.5t-57.5 20t-74.5 14.5t-74.5 23t-57.5 44.5t-23 79.5q0 77 54 118t157 41q46 0 88.5 -9.5t75.5 -25.5v-86q-18 7 -39 13t-43.5 11t-45.5 8t-43 3t-38.5 -2t-32.5 -9t-22 -20.5
t-8 -35.5q1 -29 24.5 -43.5t58 -23t74 -16.5t74 -23.5t57 -43t22.5 -75.5q0 -36 -15 -64.5t-43 -48.5t-67 -30.5t-87 -10.5q-60 0 -107.5 12t-84.5 31v86z" />
    <glyph glyph-name="t" unicode="t" horiz-adv-x="363" 
d="M62 593l104 45v-140h163v-79h-163v-264q0 -80 73 -80q18 0 41 5.5t36 12.5v-88q-21 -10 -46 -14t-58 -4q-70 0 -110 38t-40 130v438z" />
    <glyph glyph-name="u" unicode="u" horiz-adv-x="581" 
d="M515 0h-81v86q-21 -34 -47 -54t-54 -31t-55.5 -14.5t-52.5 -3.5q-75 0 -120 45.5t-45 134.5v335h104v-308q0 -36 7.5 -59t22 -36.5t34.5 -19t44 -5.5q45 2 81.5 25t57.5 64v339h104v-498z" />
    <glyph glyph-name="v" unicode="v" horiz-adv-x="509" 
d="M504 498l-225 -498h-40l-234 498h118l138 -339l134 339h109z" />
    <glyph glyph-name="w" unicode="w" horiz-adv-x="796" 
d="M257 0h-35l-217 498h110l131 -325l138 325h32l138 -325l130 325h107l-217 -498h-35l-141 334z" />
    <glyph glyph-name="x" unicode="x" horiz-adv-x="468" 
d="M478 0h-113l-128 179l-122 -179h-120l183 249l-188 249h119l127 -184l126 184h113l-182 -246z" />
    <glyph glyph-name="y" unicode="y" horiz-adv-x="505" 
d="M-3 498h116l140 -338l138 338h104l-309 -688h-107l125 244z" />
    <glyph glyph-name="z" unicode="z" horiz-adv-x="428" 
d="M5 0v45l275 370h-260v83h394v-45l-275 -370h288v-83h-422z" />
    <glyph glyph-name="braceleft" unicode="{" horiz-adv-x="294" 
d="M113 317q28 -6 51.5 -20.5t37 -38t14.5 -55t-15 -71.5l-38 -103q-6 -19 -3.5 -30.5t11 -18t20.5 -8.5t25 -2h57v-80h-54q-76 0 -119 30.5t-43 92.5q1 25 10.5 52.5t21 53.5t21 50t9.5 41q0 31 -22 49.5t-60 22.5v70q38 4 60 22.5t22 49.5q0 17 -9.5 41t-21 50t-21 53.5
t-10.5 52.5q0 62 43 92.5t119 30.5h54v-80h-57q-13 0 -25 -2t-20.5 -8.5t-11 -18t3.5 -30.5l38 -103q16 -40 15 -71.5t-14.5 -55t-37 -38t-51.5 -20.5z" />
    <glyph glyph-name="bar" unicode="|" horiz-adv-x="221" 
d="M60 -42v745h101v-745h-101z" />
    <glyph glyph-name="braceright" unicode="}" horiz-adv-x="294" 
d="M197 317q-29 6 -52 20.5t-36.5 38t-14.5 55t15 71.5l38 103q6 19 3 30.5t-11 18t-20 8.5t-25 2h-57v80h54q76 0 119 -30.5t43 -92.5q-1 -25 -10.5 -52.5t-21 -53.5t-21 -50t-9.5 -41q0 -31 22 -49.5t60 -22.5v-70q-38 -4 -60 -22.5t-22 -49.5q0 -17 9.5 -41t21 -50
t21 -53.5t10.5 -52.5q0 -62 -43 -92.5t-119 -30.5h-54v80h57q13 0 25 2t20 8.5t11 18t-3 30.5l-38 103q-16 40 -15 71.5t14.5 55t36.5 38t52 20.5z" />
    <glyph glyph-name="asciitilde" unicode="~" horiz-adv-x="593" 
d="M559 276q-37 -57 -81 -82.5t-89 -25.5q-34 0 -61.5 15t-53 33.5t-51 33.5t-55.5 15q-29 0 -57 -17t-53 -48l-47 49q40 59 83 87t88 28q35 0 62.5 -15.5t53 -34.5t50.5 -34.5t55 -15.5q27 0 52 15t54 47z" />
    <glyph glyph-name="uni00A0" unicode="&#xa0;" horiz-adv-x="290" 
 />
    <glyph glyph-name="sterling" unicode="&#xa3;" horiz-adv-x="717" 
d="M618 495q-30 11 -64 21t-68.5 17.5t-67.5 12t-61 4.5q-32 0 -59.5 -4t-47.5 -14t-31 -27.5t-11 -44.5q0 -19 9.5 -36.5t24 -35.5t30.5 -37.5t29 -42.5h258v-87h-231q1 -5 1 -15q0 -32 -17 -62t-42 -53h348v-91h-504v30q54 39 85.5 85.5t31.5 91.5q0 23 -9.5 43.5
t-24 39.5t-31.5 38.5t-31.5 40t-24 44t-9.5 50.5q0 50 22.5 84.5t60 55.5t87 30.5t102.5 9.5q68 0 129.5 -15t115.5 -38v-95z" />
    <glyph glyph-name="guillemotleft" unicode="&#xab;" horiz-adv-x="537" 
d="M124 246l147 -183l-83 -33l-171 216l171 214l83 -31zM354 246l147 -183l-83 -33l-171 216l171 214l83 -31z" />
    <glyph glyph-name="uni00AD" unicode="&#xad;" horiz-adv-x="387" 
d="M47 203v92h300v-92h-300z" />
    <glyph glyph-name="registered" unicode="&#xae;" horiz-adv-x="398" 
d="M126 397h42v82h36l46 -82h49l-54 91q20 11 27.5 25t7.5 32q0 34 -20.5 50t-55.5 16h-78v-214zM168 515v60h35q20 0 27 -9.5t7 -20.5q0 -12 -8.5 -21t-25.5 -9h-35zM367 505q0 -43 -13 -76.5t-35.5 -57t-53.5 -35.5t-66 -12t-65 12t-52.5 34.5t-36 55.5t-14.5 75
q0 43 13 77t36 57t53.5 35t65.5 12q34 0 64.5 -12t53 -34.5t36 -55.5t14.5 -75z" />
    <glyph glyph-name="paragraph" unicode="&#xb6;" horiz-adv-x="575" 
d="M264 0v213q-51 0 -96 18.5t-78 50t-52.5 73.5t-19.5 90q0 47 18 89.5t48.5 74t71.5 50t87 18.5h298v-93h-188v-584h-89zM422 0v507h89v-507h-89z" />
    <glyph glyph-name="guillemotright" unicode="&#xbb;" horiz-adv-x="537" 
d="M394 244l-147 183l83 33l171 -216l-171 -214l-83 31zM164 244l-147 183l83 33l171 -216l-171 -214l-83 31z" />
    <glyph glyph-name="uni0401" unicode="&#x401;" horiz-adv-x="557" 
d="M234 763q0 -29 -16 -43t-37 -14q-23 0 -39.5 14t-16.5 43q0 31 16.5 45.5t39.5 14.5q21 0 37 -14.5t16 -45.5zM474 763q0 -29 -16 -43t-38 -14q-21 0 -37.5 14t-16.5 43q0 31 16.5 45.5t37.5 14.5q22 0 38 -14.5t16 -45.5zM76 632h457v-91h-356v-173h314v-91h-314v-186
h356v-91h-457v632z" />
    <glyph glyph-name="uni0403" unicode="&#x403;" horiz-adv-x="554" 
d="M212 688l91 135h132l-133 -135h-90zM76 632h419v-91h-318v-541h-101v632z" />
    <glyph glyph-name="uni0404" unicode="&#x404;" horiz-adv-x="574" 
d="M459 269h-318q5 -58 25 -95.5t50 -59.5t67.5 -31t77.5 -9q45 0 90 9.5t83 26.5v-90q-39 -19 -87.5 -28.5t-97.5 -9.5q-72 0 -130 21t-99 64t-63 107.5t-22 151.5q0 64 19.5 121.5t60 101t103 69t147.5 25.5q42 0 83.5 -7t83.5 -24v-89q-34 14 -72 21t-82 7t-84.5 -8
t-73 -29t-54.5 -57t-28 -92h321v-96z" />
    <glyph glyph-name="uni0406" unicode="&#x406;" horiz-adv-x="253" 
d="M76 632h101v-632h-101v632z" />
    <glyph glyph-name="uni0407" unicode="&#x407;" horiz-adv-x="341" 
d="M74 680q-26 0 -41 20.5t-15 49.5t15 49t41 20t41 -20.5t15 -49.5t-15 -49t-41 -20zM221 0h-101v632h101v-632zM267 680q-26 0 -41 20t-15 49t15 49.5t41 20.5t41 -20t15 -49t-15 -49.5t-41 -20.5z" />
    <glyph glyph-name="uni0410" unicode="&#x410;" horiz-adv-x="622" 
d="M-10 0l302 632h30l310 -632h-113l-61 129h-298l-58 -129h-112zM307 454l-108 -239h219z" />
    <glyph glyph-name="uni0411" unicode="&#x411;" horiz-adv-x="597" 
d="M177 377q12 1 27.5 2.5t32 3t32.5 2t29 0.5q53 0 101.5 -8t86 -29t59.5 -57.5t22 -94.5q0 -94 -59 -145t-165 -51h-267v632h437v-91h-336v-164zM177 91h157q35 0 59 8.5t39 23t21.5 33t6.5 38.5q0 32 -12.5 52t-33.5 31t-49.5 15t-59.5 4q-32 0 -64 -2t-64 -6v-197z" />
    <glyph glyph-name="uni0412" unicode="&#x412;" horiz-adv-x="604" 
d="M284 553q-24 0 -54 -1.5t-53 -4.5v-183h114q62 0 100.5 23t38.5 74q0 47 -37 69.5t-109 22.5zM177 280v-195q24 -2 57 -2h55q84 0 126 24t42 79q0 51 -42 72.5t-119 21.5h-119zM76 632q56 2 107 3.5t110 1.5q128 0 187 -40t59 -109q0 -49 -23 -90.5t-85 -63.5
q72 -17 102.5 -56t30.5 -97q0 -46 -19 -80.5t-54.5 -57.5t-86 -34.5t-113.5 -11.5q-66 0 -121.5 1t-93.5 3v631z" />
    <glyph glyph-name="uni0413" unicode="&#x413;" horiz-adv-x="500" 
d="M76 632h419v-91h-318v-541h-101v632z" />
    <glyph glyph-name="uni0414" unicode="&#x414;" horiz-adv-x="719" 
d="M25 94h64q21 48 38 96t29 104.5t18.5 123.5t6.5 153v61h426v-538h77v-212h-91v118h-477v-118h-91v212zM273 450q0 -105 -23 -191t-56 -165h313v447h-234v-91z" />
    <glyph glyph-name="uni0415" unicode="&#x415;" horiz-adv-x="558" 
d="M76 632h454v-94h-357v-173h313v-95h-313v-176h361v-94h-458v632z" />
    <glyph glyph-name="uni0416" unicode="&#x416;" horiz-adv-x="939" 
d="M519 0h-99v276h-65l-221 -276h-134l272 328l-238 304h126l202 -273h58v273h99v-273h58l202 273h126l-238 -304l272 -328h-134l-221 276h-65v-276z" />
    <glyph glyph-name="uni0417" unicode="&#x417;" horiz-adv-x="549" 
d="M264 643q53 0 97 -11t75.5 -32t49 -51.5t17.5 -69.5q0 -21 -6 -43.5t-19.5 -43t-36.5 -39t-56 -31.5q66 -15 98.5 -56t32.5 -98q0 -40 -18 -74t-52 -59t-82 -39t-108 -14q-69 0 -120.5 12t-97.5 36v95q51 -26 102.5 -38.5t116.5 -12.5q31 0 58 7t47.5 20t32.5 32t12 44
q0 96 -149 96h-115v84h98q79 0 116.5 25t37.5 73q0 27 -11 45.5t-31 30t-47 16.5t-58 5q-25 0 -52 -3t-52.5 -8.5t-48 -12t-40.5 -12.5v89q39 19 92.5 28.5t116.5 9.5z" />
    <glyph glyph-name="uni0418" unicode="&#x418;" horiz-adv-x="708" 
d="M632 632v-632h-101v437l-416 -437h-39v632h101v-436l416 436h39z" />
    <glyph glyph-name="uni0419" unicode="&#x419;" horiz-adv-x="708" 
d="M372 680q-36 0 -68 10.5t-56.5 30.5t-39.5 49t-17 66h92q3 -34 24.5 -55.5t64.5 -21.5t64.5 21.5t24.5 55.5h92q-2 -37 -17 -66t-39.5 -49t-56.5 -30.5t-68 -10.5zM632 632v-632h-101v437l-416 -437h-39v632h101v-436l416 436h39z" />
    <glyph glyph-name="uni041A" unicode="&#x41a;" horiz-adv-x="595" 
d="M76 632h101v-273h61l232 273h119l-259 -303l291 -329h-137l-239 276h-68v-276h-101v632z" />
    <glyph glyph-name="uni041B" unicode="&#x41b;" horiz-adv-x="660" 
d="M483 538h-231v-73q0 -141 -13 -233t-38.5 -145t-63 -74t-85.5 -21q-12 0 -26 0.5t-26 2.5l8 90q38 -6 65.5 7t45.5 59t26.5 132t8.5 227v122h430v-632h-101v538z" />
    <glyph glyph-name="uni041C" unicode="&#x41c;" horiz-adv-x="889" 
d="M445 15l-228 386l-60 -401h-107l111 632h30l254 -440l252 440h30l116 -632h-107l-71 401z" />
    <glyph glyph-name="uni041D" unicode="&#x41d;" horiz-adv-x="688" 
d="M511 632h101v-632h-101v269h-334v-269h-101v632h101v-267h334v267z" />
    <glyph glyph-name="uni041E" unicode="&#x41e;" horiz-adv-x="742" 
d="M371 76q48 0 89 17t71 48t47 74.5t17 96.5t-17 97t-47 75t-71 48t-89 17t-89 -17t-71 -48t-47 -74.5t-17 -96.5t17 -97t47 -75t71 -48t89 -17zM371 -18q-74 0 -134.5 24t-104 67.5t-67.5 104.5t-25 135q1 74 25 134.5t67.5 104t104 67.5t134.5 24q73 0 134 -24
t104.5 -67.5t67.5 -104.5t25 -135q-1 -74 -25 -134.5t-67.5 -104t-104.5 -67.5t-134 -24z" />
    <glyph glyph-name="uni041F" unicode="&#x41f;" horiz-adv-x="678" 
d="M602 632v-632h-101v538h-324v-538h-101v632h526z" />
    <glyph glyph-name="uni0420" unicode="&#x420;" horiz-adv-x="583" 
d="M76 632h241q67 0 114 -17.5t76 -47.5t42.5 -70t13.5 -85q0 -61 -21 -103.5t-56 -69t-80 -38.5t-93 -12q-25 0 -61.5 3.5t-74.5 11.5v-204h-101v632zM177 289q29 -6 61.5 -8t52.5 -2q35 0 65.5 7.5t52.5 23.5t34.5 42t12.5 63q0 25 -6.5 47.5t-23.5 39.5t-46 26.5t-73 9.5
h-130v-249z" />
    <glyph glyph-name="uni0421" unicode="&#x421;" horiz-adv-x="597" 
d="M567 24q-47 -23 -96 -32.5t-101 -9.5q-72 0 -132 25t-103 69t-66.5 104t-23.5 131q0 75 24.5 136t69.5 104.5t108 67.5t140 24q45 0 87.5 -8t87.5 -27v-91q-41 17 -83 23.5t-85 6.5q-54 0 -98.5 -16t-76 -46t-48.5 -74t-17 -100q1 -57 20 -100.5t50 -73t72.5 -44.5
t88.5 -15q46 0 95 12t87 30v-96z" />
    <glyph glyph-name="uni0422" unicode="&#x422;" horiz-adv-x="511" 
d="M205 541h-205v91h511v-91h-205v-541h-101v541z" />
    <glyph glyph-name="uni0423" unicode="&#x423;" horiz-adv-x="559" 
d="M108 632l196 -389l172 389h107l-223 -475q-23 -50 -48 -82.5t-52.5 -51t-56.5 -26t-59 -7.5q-17 0 -33.5 2t-30.5 5v91q8 -2 18 -3.5t18 -1.5h29t33 5t35.5 17.5t37.5 37.5l-261 489h118z" />
    <glyph glyph-name="uni0424" unicode="&#x424;" horiz-adv-x="818" 
d="M359 -25v70q-77 0 -137.5 21.5t-103.5 59t-65.5 88t-22.5 109.5t23 109t65.5 86t103.5 56.5t137 20.5v59h100v-59q76 0 137 -20.5t103.5 -56.5t65.5 -86t23 -109t-22.5 -109.5t-65.5 -88t-104 -59t-137 -21.5v-70h-100zM359 505q-59 0 -102 -13.5t-70.5 -38t-41 -58.5
t-13.5 -75q0 -83 59 -133t168 -52v370zM459 135q109 2 168 52t59 133q0 41 -13.5 75t-41 58.5t-70.5 38t-102 13.5v-370z" />
    <glyph glyph-name="uni0425" unicode="&#x425;" horiz-adv-x="600" 
d="M149 632l148 -224l159 224h120l-216 -291l250 -341h-121l-192 270l-187 -270h-120l247 336l-209 296h121z" />
    <glyph glyph-name="uni0426" unicode="&#x426;" horiz-adv-x="718" 
d="M76 0v632h101v-538h324v538h101v-538h91v-212h-94v118h-523z" />
    <glyph glyph-name="uni0427" unicode="&#x427;" horiz-adv-x="609" 
d="M30 632h101v-185q0 -47 10 -76.5t29.5 -46.5t48 -23.5t64.5 -6.5t78 9t71 25v304h101v-632h-101v237q-20 -11 -43 -18.5t-47.5 -12.5t-48.5 -7.5t-45 -2.5q-41 0 -80 10.5t-69.5 37.5t-49.5 72t-19 114v202z" />
    <glyph glyph-name="uni0428" unicode="&#x428;" horiz-adv-x="1003" 
d="M76 0v632h101v-538h274v538h101v-538h274v538h101v-632h-851z" />
    <glyph glyph-name="uni0429" unicode="&#x429;" horiz-adv-x="1043" 
d="M76 0v632h101v-538h274v538h101v-538h274v538h101v-538h91v-212h-94v118h-848z" />
    <glyph glyph-name="uni042A" unicode="&#x42a;" horiz-adv-x="694" 
d="M175 541h-156v91h257v-230q28 5 63 8t60 3q58 0 107.5 -10.5t86.5 -35t58 -64t21 -97.5q0 -42 -14.5 -79.5t-43.5 -65.5t-72.5 -44.5t-101.5 -16.5h-265v541zM414 91q69 0 109 28.5t40 87.5q0 36 -14 58.5t-37.5 35.5t-53.5 18t-61 5q-34 0 -61.5 -3t-59.5 -10v-220h138z
" />
    <glyph glyph-name="uni042B" unicode="&#x42b;" horiz-adv-x="817" 
d="M640 632h101v-632h-101v632zM307 91q69 0 109 28.5t40 87.5q0 36 -14 58.5t-37.5 35.5t-53.5 18t-61 5q-34 0 -58 -3t-55 -10v-220h130zM76 632h101v-230q28 5 59 8t56 3q58 0 107.5 -10.5t86.5 -35t58 -64t21 -97.5q0 -42 -14.5 -79.5t-43.5 -65.5t-72.5 -44.5
t-101.5 -16.5h-257v632z" />
    <glyph glyph-name="uni042C" unicode="&#x42c;" horiz-adv-x="605" 
d="M315 91q69 0 109 28.5t40 87.5q0 36 -14 58.5t-37.5 35.5t-53.5 18t-61 5q-34 0 -61.5 -3t-59.5 -10v-220h138zM76 632h101v-230q28 5 63 8t60 3q58 0 107.5 -10.5t86.5 -35t58 -64t21 -97.5q0 -42 -14.5 -79.5t-43.5 -65.5t-72.5 -44.5t-101.5 -16.5h-265v632z" />
    <glyph glyph-name="uni042D" unicode="&#x42d;" horiz-adv-x="574" 
d="M110 365h321q-8 55 -30 91t-54 57t-72 29t-84 8t-82 -7t-72 -21v90q42 17 83.5 24t83.5 7q85 0 147.5 -25.5t103 -69t60 -101t19.5 -121.5q0 -77 -19 -140.5t-58 -108.5t-98.5 -70t-140.5 -25q-60 0 -102.5 8t-80.5 22v89q37 -13 77.5 -19.5t88.5 -6.5q111 0 165 51
t62 143h-318v96z" />
    <glyph glyph-name="uni042E" unicode="&#x42e;" horiz-adv-x="949" 
d="M601 -18q-62 0 -114.5 20.5t-93 58t-66 90.5t-32.5 118h-118v-269h-101v632h101v-267h120q8 63 34 114t66 87.5t92 56.5t112 20q66 0 122.5 -24t97.5 -67.5t64 -104t24 -134.5q-1 -74 -24 -134.5t-64 -104.5t-97.5 -68t-122.5 -24zM601 76q44 0 81.5 17t64.5 48t42.5 75
t15.5 97t-15.5 96.5t-42.5 74.5t-64.5 48t-81.5 17t-81.5 -17t-64.5 -48t-42.5 -75t-15.5 -97t15.5 -96.5t42.5 -74.5t64.5 -48t81.5 -17z" />
    <glyph glyph-name="uni042F" unicode="&#x42f;" horiz-adv-x="656" 
d="M463 218q-31 -7 -63 -10t-64 -3h-17t-17 1l-123 -206h-123l139 226q-32 11 -59.5 29t-47.5 42.5t-31.5 57t-11.5 73.5q0 103 63.5 153.5t183.5 50.5h272v-632h-101v218zM153 419q0 -39 17 -63.5t43.5 -39t60.5 -19.5t69 -5q29 0 57.5 1.5t62.5 9.5v238h-170
q-66 0 -103 -31t-37 -91z" />
    <glyph glyph-name="uni0430" unicode="&#x430;" horiz-adv-x="561" 
d="M425 0l-12 78q-40 -51 -88.5 -70t-105.5 -19q-33 0 -65 10t-58 30t-42 50.5t-16 71.5q0 46 17 78.5t45.5 52t65.5 28.5t78 9q29 0 70 -8.5t78 -22.5v45q0 30 -13.5 48.5t-34.5 28.5t-46 13.5t-49 3.5q-42 0 -82 -7t-76 -25v90q39 14 83 22t86 8q46 0 88.5 -8t75 -30
t51.5 -61t19 -101v-315h-69zM392 203q-29 18 -64 28t-72 10q-50 0 -80.5 -17.5t-30.5 -61.5q0 -42 24 -67.5t81 -25.5q41 0 79.5 24.5t62.5 68.5v41z" />
    <glyph glyph-name="uni0431" unicode="&#x431;" horiz-adv-x="603" 
d="M513 587q-56 -13 -118 -24.5t-116 -34.5t-93 -63.5t-50 -111.5q24 27 51 44.5t55.5 28t57 14.5t54.5 4q45 0 83.5 -15.5t66.5 -43t44 -67t16 -87.5q0 -51 -18 -96t-50.5 -79t-78.5 -53.5t-102 -19.5q-69 0 -120.5 21t-85.5 59t-51 90.5t-17 115.5q0 96 25 164.5
t81.5 116.5t146.5 79.5t219 54.5v-97zM323 354q-23 0 -49 -6.5t-50.5 -19t-47 -32t-38.5 -44.5q3 -37 13 -69.5t29.5 -57t50 -38.5t73.5 -14q40 0 70 12t49.5 33t29.5 49t10 60q0 68 -38 97.5t-102 29.5z" />
    <glyph glyph-name="uni0432" unicode="&#x432;" horiz-adv-x="556" 
d="M285 -7h-40t-55 0.5t-62.5 1.5t-60.5 3v501q54 4 113.5 5t116.5 1q39 0 75 -4.5t63.5 -18t43.5 -37t16 -61.5q0 -43 -20.5 -73t-60.5 -51q54 -17 78 -48t24 -77q0 -30 -12 -55.5t-39 -45t-71 -30.5t-109 -11zM307 78q53 0 78 19t25 52q0 32 -24.5 50t-80.5 18h-135v-139
h137zM294 291q51 0 74.5 20t23.5 51q0 29 -22 47t-83 18h-117v-136h124z" />
    <glyph glyph-name="uni0433" unicode="&#x433;" horiz-adv-x="425" 
d="M171 413v-413h-104v498h342v-85h-238z" />
    <glyph glyph-name="uni0434" unicode="&#x434;" horiz-adv-x="650" 
d="M433 86v327h-188v-32q0 -33 -2.5 -69.5t-9 -75t-18 -76.5t-28.5 -74h246zM120 0v-118h-88v204h59q19 40 31 87t18.5 97.5t8.5 101.5t2 101v25h381v-412h78v-204h-88v118h-402z" />
    <glyph glyph-name="uni0435" unicode="&#x435;" horiz-adv-x="581" 
d="M494 15q-17 -8 -38 -14t-44.5 -10t-47.5 -6t-46 -2q-73 0 -126 21t-87 57t-50.5 85t-16.5 105q0 63 21.5 112.5t57.5 83t82.5 51t96.5 17.5q64 0 109 -19t73.5 -52t42 -76.5t13.5 -92.5q0 -12 -1 -34.5t-3 -37.5h-384q6 -39 24.5 -64.5t44.5 -41t57.5 -22t63.5 -6.5
q35 0 77.5 7t80.5 24v-85zM432 282q0 72 -39 109.5t-97 37.5q-69 0 -108.5 -39t-43.5 -108h288z" />
    <glyph glyph-name="uni0436" unicode="&#x436;" horiz-adv-x="845" 
d="M380 206h-87l-147 -206h-131l197 256l-170 242h119l133 -205h86v205h95v-205h85q32 50 67 102.5t67 102.5h120l-171 -242l197 -256h-131l-147 206h-87v-206h-95v206z" />
    <glyph glyph-name="uni0437" unicode="&#x437;" horiz-adv-x="490" 
d="M59 493q17 6 42 10t52.5 6.5t53.5 4t44 1.5q85 0 136.5 -32t51.5 -98q0 -41 -21.5 -74t-66.5 -53q51 -11 76 -46.5t25 -80.5q0 -41 -17 -69t-46 -45.5t-66.5 -25.5t-77.5 -8q-21 0 -47 1t-52 4t-50 7.5t-41 11.5v92q35 -13 76.5 -20.5t81.5 -7.5q25 0 50 3t44 11.5
t31 22.5t12 36q0 32 -24.5 51.5t-84.5 19.5h-124v72h123q53 0 73.5 19.5t20.5 51.5q0 21 -10.5 34.5t-28 21t-39.5 10.5t-45 3q-18 0 -38 -2t-40 -5t-39 -7t-35 -8v88z" />
    <glyph glyph-name="uni0438" unicode="&#x438;" horiz-adv-x="597" 
d="M67 498h104v-318l322 318h37v-498h-104v318l-322 -318h-37v498z" />
    <glyph glyph-name="uni0439" unicode="&#x439;" horiz-adv-x="597" 
d="M320 552q-36 0 -67 10.5t-54 30.5t-37.5 48t-17.5 64h93q1 -35 20.5 -54.5t62.5 -19.5t62.5 19.5t20.5 54.5h93q-3 -36 -17.5 -64t-37.5 -48t-54 -30.5t-67 -10.5zM67 498h104v-318l322 318h37v-498h-104v318l-322 -318h-37v498z" />
    <glyph glyph-name="uni043A" unicode="&#x43a;" horiz-adv-x="545" 
d="M67 498h104v-205h80l150 205h124l-185 -239l203 -259h-130l-157 206h-85v-206h-104v498z" />
    <glyph glyph-name="uni043B" unicode="&#x43b;" horiz-adv-x="589" 
d="M522 498v-498h-99v413h-191q0 -134 -9.5 -216t-30 -127t-52 -60t-75.5 -15q-8 0 -22.5 0.5t-27.5 2.5l8 85q12 -3 22 -3q30 0 48.5 18.5t29 66t15 128t6.5 205.5h378z" />
    <glyph glyph-name="uni043C" unicode="&#x43c;" horiz-adv-x="778" 
d="M389 7l-202 294l-49 -301h-103l99 499h36l219 -338l219 338h35l100 -499h-103l-55 301z" />
    <glyph glyph-name="uni043D" unicode="&#x43d;" horiz-adv-x="589" 
d="M522 0h-104v207h-247v-207h-104v498h104v-207h247v207h104v-498z" />
    <glyph glyph-name="uni043E" unicode="&#x43e;" horiz-adv-x="606" 
d="M303 -17q-67 1 -117 22.5t-83 57.5t-49 83.5t-16 99.5q0 57 18 106.5t52 85.5t83.5 56.5t111.5 20.5q67 -1 117 -22.5t83 -57.5t49 -83.5t16 -99.5q0 -57 -18 -106.5t-52 -85.5t-83.5 -56.5t-111.5 -20.5zM303 69q45 0 75.5 16t48.5 41t26 56.5t8 61.5q0 35 -9 68t-28 59
t-49 42t-72 16q-45 0 -75.5 -16t-48.5 -41t-26 -56.5t-8 -61.5q0 -35 9 -68t28 -59t49 -42t72 -16z" />
    <glyph glyph-name="uni043F" unicode="&#x43f;" horiz-adv-x="585" 
d="M518 0h-104v413h-243v-413h-104v498h451v-498z" />
    <glyph glyph-name="uni0440" unicode="&#x440;" horiz-adv-x="616" 
d="M170 -190h-103v688h81v-88q22 31 47.5 51t53 32t55.5 17t55 5q57 0 99.5 -20t70.5 -54.5t41.5 -81t13.5 -99.5q0 -56 -15.5 -106t-46 -88t-75.5 -60.5t-103 -22.5q-38 0 -83.5 11t-90.5 47v-231zM325 76q40 0 69 15t47.5 39.5t27 57t8.5 68.5q0 73 -36.5 119t-115.5 46
q-43 0 -86 -22t-70 -66v-203q36 -30 74 -42t82 -12z" />
    <glyph glyph-name="uni0441" unicode="&#x441;" horiz-adv-x="480" 
d="M439 407q-25 8 -57 14t-63 6q-85 0 -129.5 -44.5t-44.5 -132.5t48 -133t123 -45q35 0 68.5 6.5t60.5 18.5v-87q-35 -15 -74 -21t-69 -6q-56 0 -104.5 18t-84 51.5t-55.5 82.5t-20 111q0 61 19 110.5t54 85t84.5 54.5t111.5 19q26 0 63.5 -5t68.5 -17v-86z" />
    <glyph glyph-name="uni0442" unicode="&#x442;" horiz-adv-x="476" 
d="M451 413h-161v-413h-104v413h-161v85h426v-85z" />
    <glyph glyph-name="uni0443" unicode="&#x443;" horiz-adv-x="502" 
d="M9 498h116l140 -338l138 338h104l-309 -688h-107l125 244z" />
    <glyph glyph-name="uni0444" unicode="&#x444;" horiz-adv-x="749" 
d="M423 515q69 -5 123.5 -27t91.5 -57t56.5 -81t19.5 -100t-19.5 -101.5t-57 -83.5t-91.5 -58t-123 -24v-173h-97v173q-69 2 -123 24t-91.5 58t-57 83.5t-19.5 101.5t19.5 100t56.5 81t91.5 57t123.5 27v162h97v-162zM423 68q46 3 81.5 17.5t59.5 39t36.5 56.5t12.5 69
q0 74 -48 124t-142 55v-361zM326 429q-94 -5 -142 -55t-48 -124q0 -37 12.5 -69t36.5 -56.5t59.5 -39t81.5 -17.5v361z" />
    <glyph glyph-name="uni0445" unicode="&#x445;" horiz-adv-x="508" 
d="M498 0h-113l-128 179l-122 -179h-120l183 249l-188 249h119l127 -184l126 184h113l-182 -246z" />
    <glyph glyph-name="uni0446" unicode="&#x446;" horiz-adv-x="625" 
d="M67 498h104v-413h243v413h104v-413h65v-203h-91v118h-425v498z" />
    <glyph glyph-name="uni0447" unicode="&#x447;" horiz-adv-x="536" 
d="M144 349q0 -35 6.5 -56.5t19 -33.5t32 -16.5t45.5 -4.5q29 0 60.5 9t57.5 23v228h104v-498h-104v190q-38 -22 -79 -30t-78 -8q-33 0 -63 9t-53.5 28.5t-37.5 49.5t-14 72v187h104v-149z" />
    <glyph glyph-name="uni0448" unicode="&#x448;" horiz-adv-x="852" 
d="M67 498h104v-413h203v413h104v-413h203v413h104v-498h-718v498z" />
    <glyph glyph-name="uni0449" unicode="&#x449;" horiz-adv-x="907" 
d="M67 498h104v-413h203v413h104v-413h203v413h104v-413h65v-203h-91v118h-692v498z" />
    <glyph glyph-name="uni044A" unicode="&#x44a;" horiz-adv-x="614" 
d="M7 498h257v-179q26 6 55.5 9t58.5 3q97 0 152.5 -43.5t55.5 -122.5q0 -75 -48 -120t-133 -45h-245v413h-153v85zM264 79h123q52 0 72.5 25t20.5 63q0 26 -9 43t-24.5 26.5t-36 13t-42.5 3.5q-27 0 -54.5 -3.5t-49.5 -8.5v-162z" />
    <glyph glyph-name="uni044B" unicode="&#x44b;" horiz-adv-x="716" 
d="M545 498h104v-498h-104v498zM67 498h104v-179q26 6 52 9t55 3q97 0 152.5 -43.5t55.5 -122.5q0 -75 -48 -120t-133 -45h-238v498zM171 79h116q52 0 72.5 25t20.5 63q0 26 -9 43t-24.5 26.5t-36 13t-42.5 3.5q-27 0 -51 -3.5t-46 -8.5v-162z" />
    <glyph glyph-name="uni044C" unicode="&#x44c;" horiz-adv-x="515" 
d="M67 498h104v-179q26 6 55.5 9t58.5 3q97 0 152.5 -43.5t55.5 -122.5q0 -75 -48 -120t-133 -45h-245v498zM171 79h123q52 0 72.5 25t20.5 63q0 26 -9 43t-24.5 26.5t-36 13t-42.5 3.5q-27 0 -54.5 -3.5t-49.5 -8.5v-162z" />
    <glyph glyph-name="uni044D" unicode="&#x44d;" horiz-adv-x="497" 
d="M128 291h231q-9 68 -54.5 102t-124.5 34q-35 0 -67.5 -4.5t-62.5 -14.5v82q32 14 66 19.5t71 5.5q57 0 107 -16t86.5 -49t57.5 -82.5t21 -116.5q0 -68 -21 -118.5t-57.5 -83.5t-85 -49.5t-103.5 -16.5q-42 0 -79.5 7t-69.5 23v84q59 -25 126 -25q85 0 131.5 31.5
t57.5 103.5h-230v84z" />
    <glyph glyph-name="uni044E" unicode="&#x44e;" horiz-adv-x="826" 
d="M530 -17q-58 0 -103 18t-77.5 48.5t-51 71t-24.5 86.5h-103v-207h-104v498h104v-207h104q6 48 26.5 89t53.5 71t77 47t98 17q64 0 112.5 -21.5t80.5 -58t48.5 -84t16.5 -99.5q0 -57 -18 -106t-51.5 -85.5t-81 -57t-107.5 -20.5zM530 69q43 0 72 16t47 41.5t25.5 56.5
t7.5 62q0 34 -8.5 67.5t-27 59t-47.5 41.5t-69 16q-43 0 -72 -16t-47 -41.5t-25.5 -56.5t-7.5 -62q0 -35 8.5 -68t27 -58.5t47 -41.5t69.5 -16z" />
    <glyph glyph-name="uni044F" unicode="&#x44f;" horiz-adv-x="555" 
d="M252 144l-79 -144h-122l99 164q-47 19 -76 57t-34 101q0 81 48.5 128.5t142.5 47.5h257v-498h-104v155q-33 -8 -62 -9.5t-55 -1.5h-15zM384 420h-121q-52 0 -84 -25.5t-32 -74.5q0 -28 11.5 -47.5t31 -32t46.5 -18t58 -5.5q18 0 41 2.5t49 7.5v193z" />
    <glyph glyph-name="uni0451" unicode="&#x451;" horiz-adv-x="581" 
d="M249 630q0 -29 -16 -43.5t-38 -14.5q-23 0 -39.5 14.5t-16.5 43.5q0 31 16.5 45.5t39.5 14.5q22 0 38 -14.5t16 -45.5zM492 630q0 -29 -16.5 -43.5t-37.5 -14.5q-22 0 -38.5 14.5t-16.5 43.5q0 31 16.5 45.5t38.5 14.5q21 0 37.5 -14.5t16.5 -45.5zM494 2
q-34 -16 -82.5 -24t-93.5 -8q-73 0 -126 21t-87 56t-50.5 84t-16.5 105q0 63 21.5 112.5t57.5 83t82.5 51t96.5 17.5q64 0 109 -19t73.5 -52t42 -76.5t13.5 -92.5q0 -12 -1 -34.5t-3 -37.5h-384q6 -39 24.5 -64.5t44.5 -41t57.5 -22t63.5 -6.5q35 0 77.5 7t80.5 24v-83z
M432 267q0 72 -39 109.5t-97 37.5q-69 0 -108.5 -39t-43.5 -108h288z" />
    <glyph glyph-name="uni0453" unicode="&#x453;" horiz-adv-x="425" 
d="M161 551l101 135h132l-143 -135h-90zM171 413v-413h-104v498h342v-85h-238z" />
    <glyph glyph-name="uni0454" unicode="&#x454;" horiz-adv-x="494" 
d="M369 207h-230q4 -39 19.5 -65t39 -42t53.5 -22.5t64 -6.5q38 0 72.5 7.5t63.5 20.5v-84q-31 -17 -72.5 -24.5t-83.5 -7.5q-55 0 -102 16.5t-81.5 49.5t-54 83.5t-19.5 118.5q0 67 21 116.5t57.5 82.5t86.5 49t107 16q37 0 71 -5.5t66 -19.5v-82q-30 10 -62.5 14.5
t-67.5 4.5q-79 0 -124.5 -34t-54.5 -102h231v-84z" />
    <glyph glyph-name="uni0456" unicode="&#x456;" horiz-adv-x="251" 
d="M72 498h104v-498h-104v498zM62 633q0 29 18.5 49t44.5 20q27 0 45.5 -20t18.5 -49t-18.5 -49.5t-45.5 -20.5q-26 0 -44.5 20.5t-18.5 49.5z" />
    <glyph glyph-name="uni0457" unicode="&#x457;" horiz-adv-x="336" 
d="M69 563q-26 0 -41 20.5t-15 49.5t15 49t41 20t41 -20.5t15 -49.5t-15 -49t-41 -20zM220 0h-104v498h104v-498zM267 563q-26 0 -41 20t-15 49t15 49.5t41 20.5t41 -20t15 -49t-15 -49.5t-41 -20.5z" />
    <glyph glyph-name="uni0490" unicode="&#x490;" horiz-adv-x="554" 
d="M76 632h329v98h90v-189h-318v-541h-101v632z" />
    <glyph glyph-name="uni0491" unicode="&#x491;" horiz-adv-x="472" 
d="M171 413v-413h-104v498h255v84h87v-169h-238z" />
    <glyph glyph-name="uni0E3F" unicode="&#xe3f;" horiz-adv-x="0" 
 />
    <glyph glyph-name="endash" unicode="&#x2013;" horiz-adv-x="756" 
d="M96 205v88h564v-88h-564z" />
    <glyph glyph-name="emdash" unicode="&#x2014;" horiz-adv-x="906" 
d="M96 205v88h714v-88h-714z" />
    <glyph glyph-name="quoteleft" unicode="&#x2018;" horiz-adv-x="226" 
d="M206 632l-74 -262h-112l116 262h70z" />
    <glyph glyph-name="quoteright" unicode="&#x2019;" horiz-adv-x="226" 
d="M20 370l74 262h112l-116 -262h-70z" />
    <glyph glyph-name="quotedblleft" unicode="&#x201c;" horiz-adv-x="391" 
d="M371 632l-74 -262h-112l116 262h70zM206 632l-74 -262h-112l116 262h70z" />
    <glyph glyph-name="quotedblright" unicode="&#x201d;" horiz-adv-x="391" 
d="M20 370l74 262h112l-116 -262h-70zM185 370l74 262h112l-116 -262h-70z" />
    <glyph glyph-name="quotedblbase" unicode="&#x201e;" horiz-adv-x="391" 
d="M20 -137l74 262h112l-116 -262h-70zM185 -137l74 262h112l-116 -262h-70z" />
    <glyph glyph-name="bullet" unicode="&#x2022;" horiz-adv-x="386" 
d="M60 389q0 29 10.5 54.5t28.5 44.5t42.5 30t51.5 11t51 -11t42 -30.5t28.5 -45t10.5 -53.5t-10.5 -53t-28.5 -44t-42 -30t-51 -11t-51.5 11t-42.5 30t-28.5 44t-10.5 53z" />
    <glyph glyph-name="ellipsis" unicode="&#x2026;" horiz-adv-x="625" 
d="M174 56q0 -38 -21 -56t-49 -18q-29 0 -50.5 18t-21.5 56q0 39 21.5 57.5t50.5 18.5q28 0 49 -18.5t21 -57.5zM387 56q0 -38 -21 -56t-49 -18q-29 0 -50.5 18t-21.5 56q0 39 21.5 57.5t50.5 18.5q28 0 49 -18.5t21 -57.5zM600 56q0 -38 -21 -56t-49 -18q-29 0 -50.5 18
t-21.5 56q0 39 21.5 57.5t50.5 18.5q28 0 49 -18.5t21 -57.5z" />
    <glyph glyph-name="Euro" unicode="&#x20ac;" horiz-adv-x="752" 
d="M284 197q28 -57 79 -88t114 -31q72 0 144 42v-96q-31 -21 -68.5 -31t-78.5 -10q-57 0 -106.5 15.5t-89 43.5t-68 67.5t-44.5 87.5h-90v72h75q-2 10 -2 20.5v21.5v23h-73v72h84q13 53 41.5 96.5t69.5 75t93.5 48.5t114.5 17q35 0 73 -9t64 -26v-91q-60 30 -125 30
q-81 0 -137.5 -37t-80.5 -104h283v-72h-298v-23q0 -11 1 -21.5t3 -20.5h294v-72h-272z" />
    <glyph glyph-name="uni20B4" unicode="&#x20b4;" horiz-adv-x="694" 
d="M64 406h347q29 23 43.5 44t14.5 42q0 35 -34.5 50.5t-97.5 15.5q-55 0 -111 -9t-98 -23v88q71 19 132.5 24t105.5 5q47 0 85.5 -10t66 -28.5t42.5 -44t15 -56.5q0 -26 -13.5 -50.5t-34.5 -47.5h79v-65h-159q-30 -20 -58 -36t-51 -29h268v-65h-365q-26 -23 -32.5 -38
t-6.5 -29q0 -39 38 -57.5t100 -18.5q29 0 61 3t63.5 8t60.5 10t50 10v-87q-37 -9 -75.5 -15t-74.5 -9t-67 -4t-53 -1q-48 0 -86.5 10.5t-66 30t-42 45.5t-14.5 58q0 23 9 44t26 40h-67v65h145q23 15 48 29.5t59 35.5h-252v65z" />
    <glyph glyph-name="uni20BD" unicode="&#x20bd;" horiz-adv-x="782" 
d="M110 323h103v309h240q67 0 113.5 -15t76 -41.5t43 -63.5t13.5 -80t-13.5 -78t-43 -60t-76 -38.5t-113.5 -13.5h-141v-65h248v-72h-248v-105h-99v105h-103v72h103v65h-103v81zM435 323q48 0 78.5 8t48.5 22t24.5 34.5t6.5 44.5q0 25 -6.5 44.5t-24.5 33t-48.5 21
t-78.5 7.5h-123v-215h123z" />
    <glyph glyph-name="uni2116" unicode="&#x2116;" horiz-adv-x="1144" 
d="M76 632h33l404 -434v434h93v-632h-36l-401 435v-435h-93v632zM705 461q0 39 14.5 72.5t39.5 58t58 38t71 13.5q37 0 70.5 -13.5t59 -38t40 -58t14.5 -72.5t-14.5 -72.5t-40 -57.5t-59 -37.5t-70.5 -13.5q-38 0 -71 13.5t-58 37.5t-39.5 57.5t-14.5 72.5zM783 461
q0 -23 8.5 -42.5t22.5 -34t33.5 -23t40.5 -8.5q22 0 41 8.5t33.5 23t23 34t8.5 42.5q0 48 -31 79t-75 31q-21 0 -40.5 -8.5t-33.5 -23t-22.5 -34.5t-8.5 -44zM1026 100h-276v81h276v-81z" />
    <glyph glyph-name="arrowleft" unicode="&#x2190;" horiz-adv-x="729" 
d="M185 273l218 -206l-59 -65l-317 313l318 314l58 -65l-218 -203h537v-88h-537z" />
    <glyph glyph-name="arrowup" unicode="&#x2191;" horiz-adv-x="661" 
d="M288 536l-206 -217l-65 59l313 317l314 -318l-65 -58l-203 217v-536h-88v536z" />
    <glyph glyph-name="arrowright" unicode="&#x2192;" horiz-adv-x="729" 
d="M326 67l217 206h-536v88h536l-217 203l58 65l318 -314l-317 -313z" />
    <glyph glyph-name="arrowdown" unicode="&#x2193;" horiz-adv-x="661" 
d="M373 158l206 218l65 -59l-313 -317l-314 318l65 58l203 -218v537h88v-537z" />
    <glyph glyph-name="infinity" unicode="&#x221e;" horiz-adv-x="771" 
d="M648 310q0 51 -28.5 73.5t-70.5 22.5q-22 0 -41 -8.5t-35.5 -22.5t-31.5 -32t-28 -37q42 -53 76 -70.5t66 -17.5q19 0 35.5 5t29.5 16t20.5 28.5t7.5 42.5zM217 211q27 0 59 16.5t74 65.5q-34 61 -67.5 85.5t-70.5 24.5q-39 0 -67.5 -25t-28.5 -70q0 -52 30 -74.5
t71 -22.5zM725 317q0 -47 -13 -82t-35 -58.5t-51.5 -35.5t-62.5 -12q-54 0 -96.5 26t-81.5 68q-39 -45 -86.5 -70t-92.5 -25q-33 0 -63.5 11.5t-53 34.5t-36 56t-13.5 77q0 35 11 68t32 58.5t52.5 41t72.5 15.5q53 0 95.5 -27.5t77.5 -78.5q48 53 90 80t90 27
q38 0 68.5 -14.5t51.5 -38.5t32.5 -55.5t11.5 -65.5z" />
    <glyph glyph-name="approxequal" unicode="&#x2248;" horiz-adv-x="615" 
d="M-2 371q45 45 85.5 65.5t83.5 20.5q35 0 67 -12t61 -27t57 -27t55 -12q25 0 52 12t58 42l52 -54q-35 -34 -77 -58.5t-88 -24.5q-28 0 -58.5 12t-61 27t-59.5 27t-54 12q-60 0 -121 -57zM-2 171q45 45 85.5 65.5t83.5 20.5q35 0 67 -12t61 -27t57 -27t55 -12q25 0 52 12
t58 42l52 -54q-35 -34 -77 -58.5t-88 -24.5q-28 0 -58.5 12t-61 27t-59.5 27t-54 12q-60 0 -121 -57z" />
    <glyph glyph-name="zero.alt" 
d="M291 76q47 0 80.5 19t55 51t31.5 75t10 91t-10 91t-31.5 75.5t-55 51.5t-80.5 19t-80.5 -19t-55 -51t-31.5 -75t-10 -91t10 -91t31.5 -75.5t55 -51.5t80.5 -19zM291 -17q-68 0 -121 26t-89 71t-55 105t-19 128t19 128t55 105t89 71t121 26t121 -26t89 -71t55 -105.5
t19 -128.5t-19 -128t-55 -104.5t-89 -70.5t-121 -26z" />
    <glyph glyph-name="zero.alt2" horiz-adv-x="414" 
d="M207 77q26 0 41 19.5t23 52t10 75.5t2 90t-2 89.5t-10 75t-23 51.5t-41 19t-41.5 -19.5t-23 -52t-9.5 -75.5t-2 -90t2 -89.5t9.5 -75t23 -51.5t41.5 -19zM207 -17q-85 0 -126 86.5t-41 242.5t41 243.5t126 87.5t126 -86.5t41 -242.5t-41 -243.5t-126 -87.5z" />
    <glyph glyph-name="one.alt" 
d="M343 88h125v-88h-349v88h125v447h-133l23 97h209v-544z" />
    <glyph glyph-name="one.alt2" horiz-adv-x="262" 
d="M188 88h73v-88h-231v88h72v447h-81l20 97h147v-544z" />
    <glyph glyph-name="two.alt" 
d="M75 0v35l197 220q27 30 47 54t34 45.5t21 42t7 42.5q0 58 -32 84.5t-88 26.5q-37 0 -81 -13.5t-84 -37.5v95q45 27 90.5 38t91.5 11q40 0 77 -11.5t65 -35t45 -58.5t17 -82q0 -33 -7.5 -60t-23 -54t-40 -56.5t-57.5 -66.5l-111 -122h262v-97h-430z" />
    <glyph glyph-name="two.alt2" horiz-adv-x="326" 
d="M11 0v37l120 219q26 43 47 89.5t21 99.5q0 54 -15.5 79.5t-54.5 25.5q-20 0 -47 -13t-57 -42v101q23 22 55 34.5t64 12.5q36 0 62.5 -13.5t44 -37.5t26 -57t8.5 -72q0 -35 -6 -65.5t-16.5 -59.5t-25.5 -58t-34 -62l-69 -121h149v-97h-272z" />
    <glyph glyph-name="three.alt" 
d="M86 123q32 -17 75 -34t91 -17q34 0 61 10t46 27.5t28.5 41t9.5 49.5q0 33 -12 55t-32 35t-46 18.5t-53 5.5q-18 0 -36 -2t-34 -5l-12 37l181 194h-277l24 94h384v-67l-174 -181q49 -2 85.5 -19t60.5 -43.5t36 -59.5t12 -67q0 -49 -18 -88t-49.5 -66.5t-73.5 -42.5
t-90 -15q-45 0 -97 8t-90 34v98z" />
    <glyph glyph-name="three.alt2" horiz-adv-x="342" 
d="M28 119q23 -21 43.5 -34t47.5 -13q44 0 67.5 34t23.5 96q0 53 -18.5 82.5t-63.5 29.5q-14 0 -41 -8l-10 38l115 194h-171l21 94h241v-67l-113 -187q33 -2 56.5 -16.5t38.5 -37.5t22.5 -53.5t7.5 -65.5q0 -53 -13 -94.5t-36 -70t-54 -43t-67 -14.5q-26 0 -50.5 8t-46.5 28
v100z" />
    <glyph glyph-name="four.alt" 
d="M365 242v259l-222 -259h222zM41 157l-22 64l354 411h90v-390h105l-31 -85h-74v-157h-98v157h-324z" />
    <glyph glyph-name="four.alt2" horiz-adv-x="395" 
d="M238 242v231l-116 -231h116zM56 157l-19 64l207 411h77v-390h64l-20 -85h-44v-157h-83v157h-182z" />
    <glyph glyph-name="five.alt" 
d="M509 198q0 -50 -20 -89.5t-55 -67.5t-83 -43t-105 -15q-48 0 -92 8t-84 30v96q34 -16 76 -30.5t87 -14.5q37 0 68 8.5t53.5 25.5t35 42t12.5 59q0 52 -34 83.5t-103 31.5q-38 0 -77.5 -6t-73.5 -20l-21 22l35 314h352l-25 -94h-255l-16 -143q23 8 49 12t53 4q40 0 80 -11
t71.5 -36.5t51.5 -66t20 -99.5z" />
    <glyph glyph-name="five.alt2" horiz-adv-x="363" 
d="M134 401q24 9 51 9q34 0 60 -14t43 -40t26 -62.5t9 -80.5q0 -53 -13 -95.5t-36 -72.5t-55 -46t-71 -16q-31 0 -55.5 8.5t-49.5 31.5v98q20 -20 45 -34.5t54 -14.5q46 0 71.5 37.5t25.5 108.5q0 47 -16.5 78.5t-56.5 31.5q-23 0 -47.5 -8.5t-44.5 -24.5l-19 23l30 314h220
l-21 -94h-135z" />
    <glyph glyph-name="six.alt" 
d="M313 -17q-125 0 -194.5 78t-69.5 220q0 76 20 142t59 115t95 77t128 28q83 0 150 -41v-94q-66 42 -139 42q-48 0 -84.5 -16.5t-62.5 -45t-40 -67t-17 -82.5q29 33 73.5 50t101.5 17q45 0 84.5 -14.5t69 -41.5t46 -64.5t16.5 -82.5q0 -49 -18 -89.5t-49.5 -69.5t-75 -45
t-93.5 -16zM305 72q30 0 55 9.5t43 27t28.5 41t10.5 51.5q0 27 -10.5 49.5t-29.5 38.5t-44 25t-53 9q-24 0 -48 -7.5t-44.5 -21t-36 -31.5t-22.5 -39q4 -33 16 -61t31.5 -48t45.5 -31.5t58 -11.5z" />
    <glyph glyph-name="six.alt2" horiz-adv-x="464" 
d="M272 550q-54 0 -80.5 -50.5t-33.5 -150.5q17 28 46 42.5t58 14.5q57 0 92.5 -54.5t35.5 -148.5q0 -48 -11.5 -88.5t-32 -70t-49 -45.5t-62.5 -16q-86 0 -123.5 73t-37.5 216q0 87 13.5 155.5t38.5 116.5t61 73.5t81 25.5q26 0 51.5 -10.5t45.5 -33.5v-97
q-31 31 -51.5 39.5t-41.5 8.5zM306 201q0 55 -14 86.5t-52 31.5q-28 0 -50.5 -24t-32.5 -66q1 -33 5.5 -61.5t13 -49.5t22 -33.5t33.5 -12.5q43 0 59 37t16 92z" />
    <glyph glyph-name="seven.alt" 
d="M173 17l195 519h-301l23 96h423l-246 -652z" />
    <glyph glyph-name="seven.alt2" horiz-adv-x="259" 
d="M43 17l123 519h-178l19 96h268l-151 -653z" />
    <glyph glyph-name="eight.alt" 
d="M150 331q-32 23 -51.5 56t-19.5 83q0 39 15 71t43.5 54.5t69 35t91.5 12.5q43 0 79.5 -12.5t63.5 -35.5t42.5 -54t15.5 -67q0 -45 -22.5 -84.5t-65.5 -62.5q55 -24 90.5 -60.5t35.5 -101.5q0 -48 -21 -82t-55.5 -56.5t-79 -33t-91.5 -10.5q-57 0 -103 13.5t-78 37.5
t-49.5 57.5t-17.5 72.5q0 48 27 93.5t81 73.5zM142 177q0 -28 12 -48t33 -32.5t48.5 -18.5t59.5 -6q30 0 56 5.5t45 17t30 28.5t11 40q0 28 -19.5 46t-50 31.5t-68.5 25t-75 26.5q-43 -17 -62.5 -49t-19.5 -66zM401 465q0 44 -30.5 67.5t-82.5 23.5q-23 0 -43 -4t-35 -13.5
t-24 -26.5t-9 -42q0 -26 16 -44t39.5 -31.5t50 -22.5t47.5 -15q35 20 53 50t18 58z" />
    <glyph glyph-name="eight.alt2" horiz-adv-x="387" 
d="M193 -17q-74 0 -114.5 47t-40.5 135q0 21 4.5 44.5t14 46t23.5 41.5t32 31q-25 23 -40 59.5t-15 86.5q0 86 37.5 127.5t103.5 41.5q31 0 55 -13t40.5 -36t25 -54t8.5 -68q0 -42 -16.5 -81t-45.5 -62q16 -12 31 -26.5t27 -34t19 -44.5t7 -58q0 -48 -13 -82t-34.5 -56.5
t-49.5 -33t-59 -11.5zM274 164q0 24 -10 39.5t-26 28t-36.5 24t-41.5 27.5q-22 -15 -34.5 -42t-12.5 -63q0 -31 6 -51t16.5 -32t25.5 -17t32 -5q35 0 58 21.5t23 69.5zM131 480q0 -24 7 -42t18.5 -32t26.5 -25t31 -20q18 20 28.5 50t10.5 56q0 42 -14 65.5t-46 23.5
q-31 0 -46.5 -21.5t-15.5 -54.5z" />
    <glyph glyph-name="nine.alt" 
d="M313 553q-29 0 -53.5 -9.5t-42.5 -27t-28.5 -40.5t-10.5 -50q0 -57 37.5 -90.5t98.5 -33.5q25 0 49 8t45 21.5t36 32t22 38.5q-4 33 -16.5 60.5t-32 47.5t-46 31.5t-58.5 11.5zM307 643q62 0 111 -20.5t82.5 -59t51.5 -94t18 -125.5q0 -75 -20 -141t-58.5 -114.5t-95 -77
t-128.5 -28.5q-85 0 -149 40v94q64 -42 138 -42q48 0 85.5 17t63 45.5t40 67t17.5 81.5q-30 -30 -76.5 -48.5t-100.5 -18.5q-46 0 -85.5 14.5t-68 41t-45 64t-16.5 83.5q0 49 18 89.5t49.5 69.5t75 45.5t93.5 16.5z" />
    <glyph glyph-name="nine.alt2" horiz-adv-x="422" 
d="M196 72q51 0 75.5 47.5t31.5 157.5q-18 -30 -47.5 -43.5t-54.5 -13.5q-57 0 -91.5 54.5t-34.5 148.5q0 48 11 88.5t31.5 70t48.5 45.5t63 16q83 0 119 -70t38 -203q0 -387 -188 -387q-26 0 -52 9t-46 35v99q19 -24 44.5 -39t51.5 -15zM159 425q0 -55 13.5 -86.5
t50.5 -31.5q14 0 27 7.5t23.5 19.5t18 27.5t11.5 32.5q-1 34 -4.5 63t-11.5 50.5t-21 34t-34 12.5t-35.5 -10t-22.5 -27t-11.5 -41t-3.5 -51z" />
    <glyph glyph-name="uni20BD.alt" horiz-adv-x="458" 
d="M218 242v-65h109v-72h-109v-105h-81v105h-62v72h62v65h-62v81h62v309h92q52 0 87 -13.5t56.5 -38.5t30.5 -61t9 -80q0 -43 -9.5 -79t-31 -62.5t-56.5 -41t-86 -14.5h-11zM330 432q0 27 -4 47t-15.5 33t-31 19.5t-49.5 6.5h-12v-215h12q30 0 49.5 8t31 22t15.5 34.5
t4 44.5z" />
    </font>
</defs>
</svg>
